<?xml version="1.0" encoding="UTF-8" standalone="no"?>
<!-- Created with Inkscape (http://www.inkscape.org/) -->

<svg
   xmlns:dc="http://purl.org/dc/elements/1.1/"
   xmlns:cc="http://creativecommons.org/ns#"
   xmlns:rdf="http://www.w3.org/1999/02/22-rdf-syntax-ns#"
   xmlns:svg="http://www.w3.org/2000/svg"
   xmlns="http://www.w3.org/2000/svg"
   xmlns:xlink="http://www.w3.org/1999/xlink"
   xmlns:sodipodi="http://sodipodi.sourceforge.net/DTD/sodipodi-0.dtd"
   xmlns:inkscape="http://www.inkscape.org/namespaces/inkscape"
   width="47.600353mm"
   height="52.916668mm"
   viewBox="0 0 47.600352 52.916667"
   version="1.1"
   id="svg8"
   inkscape:version="0.92.4 (5da689c313, 2019-01-14)"
   sodipodi:docname="lanote.svg">
  <defs
     id="defs2">
    <linearGradient
       inkscape:collect="always"
       id="linearGradient833">
      <stop
         style="stop-color:#f04a5e;stop-opacity:1;"
         offset="0"
         id="stop829" />
      <stop
         style="stop-color:#f78f6a;stop-opacity:1"
         offset="1"
         id="stop831" />
    </linearGradient>
    <linearGradient
       inkscape:collect="always"
       xlink:href="#linearGradient833"
       id="linearGradient835"
       x1="411.75"
       y1="277.51968"
       x2="445.53711"
       y2="294.27539"
       gradientUnits="userSpaceOnUse"
       gradientTransform="matrix(0.73048586,0,0,0.73048586,-179.59338,-157.92228)" />
  </defs>
  <sodipodi:namedview
     id="base"
     pagecolor="#ffffff"
     bordercolor="#666666"
     borderopacity="1.0"
     inkscape:pageopacity="0.0"
     inkscape:pageshadow="2"
     inkscape:zoom="2"
     inkscape:cx="213.55457"
     inkscape:cy="51.623462"
     inkscape:document-units="mm"
     inkscape:current-layer="layer1"
     showgrid="false"
     inkscape:window-width="1920"
     inkscape:window-height="1027"
     inkscape:window-x="-8"
     inkscape:window-y="-8"
     inkscape:window-maximized="1"
     fit-margin-top="0"
     fit-margin-left="0"
     fit-margin-right="0"
     fit-margin-bottom="0" />
  <metadata
     id="metadata5">
    <rdf:RDF>
      <cc:Work
         rdf:about="">
        <dc:format>image/svg+xml</dc:format>
        <dc:type
           rdf:resource="http://purl.org/dc/dcmitype/StillImage" />
        <dc:title></dc:title>
      </cc:Work>
    </rdf:RDF>
  </metadata>
  <g
     inkscape:label="Calque 1"
     inkscape:groupmode="layer"
     id="layer1"
     transform="translate(-101.99003,-36.766471)">
    <path
       style="fill:url(#linearGradient835);fill-opacity:1;stroke-width:0.75873852"
       d="m 149.59038,36.766471 c 0,0 -7.95756,0.592965 -20.46787,4.043356 -12.5103,3.450384 -15.97368,5.45296 -15.97368,5.45296 l -0.0856,31.175486 a 6.134141,7.7614123 72.584324 0 0 -5.2789,0.09416 6.134141,7.7614123 72.584324 0 0 -5.56996,8.176591 6.134141,7.7614123 72.584324 0 0 9.24236,3.52973 6.134141,7.7614123 72.584324 0 0 4.3501,-2.899116 l 0.004,0.0114 0.0114,-0.0328 a 6.134141,7.7614123 72.584324 0 0 1.4196,-3.95347 6.134141,7.7614123 72.584324 0 0 0,-0.104153 l 0.0328,-27.133554 c 0,0 4.15681,-1.845456 12.58518,-3.377073 8.42845,-1.531617 15.27458,-1.465252 15.27458,-1.465252 l 0.0199,22.569449 a 6.134141,7.7614123 72.584324 0 0 -5.29745,0.08703 6.134141,7.7614123 72.584324 0 0 -5.56995,8.17516 6.134141,7.7614123 72.584324 0 0 9.24235,3.529729 6.134141,7.7614123 72.584324 0 0 5.7854,-6.801218 l 0.009,-0.02279 z m -4.5741,5.432989 0.0457,4.42857 c 0,0 -11.84251,1.663711 -17.44035,2.648011 -5.59785,0.984301 -10.18115,2.830633 -10.18115,2.830633 l -0.0913,-2.876288 c 0,0 5.59285,-2.719635 11.4595,-4.291604 5.86667,-1.571969 16.20765,-2.739322 16.20765,-2.739322 z"
       id="ellipse820"
       inkscape:connector-curvature="0" />
  </g>
</svg>
