<?xml version="1.0" encoding="UTF-8" standalone="no"?>
<svg
   xmlns:dc="http://purl.org/dc/elements/1.1/"
   xmlns:cc="http://creativecommons.org/ns#"
   xmlns:rdf="http://www.w3.org/1999/02/22-rdf-syntax-ns#"
   xmlns:svg="http://www.w3.org/2000/svg"
   xmlns="http://www.w3.org/2000/svg"
   xmlns:xlink="http://www.w3.org/1999/xlink"
   id="svg8"
   version="1.1"
   viewBox="0 0 105.83333 3.9688"
   height="3.9688001mm"
   width="105.83334mm">
  <defs
     id="defs2">
    <linearGradient
       id="linearGradient832">
      <stop
         id="stop828"
         offset="0"
         style="stop-color:#41963c;stop-opacity:1" />
      <stop
         id="stop830"
         offset="1"
         style="stop-color:#b8fa7c;stop-opacity:1" />
    </linearGradient>
    <linearGradient
       gradientTransform="matrix(-1.0223781,0,0,1.0366635,247.54206,-7.0586804)"
       gradientUnits="userSpaceOnUse"
       y2="146.76608"
       x2="198.21327"
       y1="146.94345"
       x1="91.942711"
       id="linearGradient834"
       xlink:href="#linearGradient832" />
  </defs>
  <metadata
     id="metadata5">
    <rdf:RDF>
      <cc:Work
         rdf:about="">
        <dc:format>image/svg+xml</dc:format>
        <dc:type
           rdf:resource="http://purl.org/dc/dcmitype/StillImage" />
        <dc:title></dc:title>
      </cc:Work>
    </rdf:RDF>
  </metadata>
  <g
     transform="translate(-41.426287,-143.21509)"
     id="layer1">
    <path
       id="path826"
       d="m 147.11737,143.50897 -0.82117,-0.29388 -4.97534,0.53877 -3.18809,-0.4408 -8.40495,0.39183 -7.24565,0.049 -3.96096,-0.34285 -9.95068,0.19592 -5.79653,0.48979 -11.581966,0.14304 -13.457587,-0.76194 -10.8617,-0.0347 -7.07036,0.38098 -7.86868,-0.0947 -4.15417,-0.0244 -3.16393,0.19592 -1.85972,0.36734 -1.03927,0.0929 0.6319,0.43292 2.27138,-0.0346 1.75906,0.0346 -1.48581,0.29438 h -1.72489 l -1.34917,0.15585 -0.3928,0.15586 c 0,0 0.51235,0.31171 0.68312,0.36365 0.17079,0.0519 2.40803,0.0173 2.40803,0.0173 l 3.50102,-0.22512 c 0,0 5.34546,0.27707 5.51624,0.27707 0.17078,0 4.6111,0.50219 4.6111,0.50219 l 7.45804,0.0637 4.58891,-0.17143 c 0,0 4.22662,0.0735 4.37153,0.0735 0.14492,0 5.19272,0.14694 5.19272,0.14694 l 4.73382,0.44081 9.433727,0.29508 11.356976,-0.19048 7.30945,-0.39829 7.45183,-1.8e-4 4.83044,0.29387 5.53084,-0.0244 6.40371,-0.23457 4.62819,0.29438 h 3.80842 l 1.38333,-0.27707 c 0,0 0.56358,-0.7273 0.58066,-0.79656 0.0171,-0.0693 0.0512,-1.99143 0.0512,-1.99143 z"
       style="fill:url(#linearGradient834);fill-opacity:1;stroke:none;stroke-width:0.27238744px;stroke-linecap:butt;stroke-linejoin:miter;stroke-opacity:1" />
  </g>
</svg>
